<svg width="60" height="60" viewBox="0 0 60 60" fill="none" xmlns="http://www.w3.org/2000/svg">
<circle cx="30" cy="30" r="29" stroke="white" stroke-width="2"/>
<path d="M25.828 30.356C27.34 31.676 28.096 33.032 28.096 34.424C28.096 35.336 27.784 36.248 27.16 37.16C24.952 40.328 22.36 42.284 19.384 43.028C18.616 43.22 17.752 43.316 16.792 43.316C14.536 43.316 12.376 42.752 10.312 41.624C9.328 41.096 8.644 40.412 8.26 39.572C7.876 38.732 7.684 37.736 7.684 36.584C7.684 35.768 7.78 34.592 7.972 33.056C8.044 32.648 8.38 32.444 8.98 32.444C9.652 32.444 10.336 32.66 11.032 33.092C11.728 33.524 12.04 34.004 11.968 34.532C11.944 34.724 11.884 35.156 11.788 35.828C11.692 36.476 11.644 37.076 11.644 37.628C11.644 38.876 11.944 39.716 12.544 40.148C13.144 40.58 13.924 40.796 14.884 40.796C15.844 40.796 16.84 40.592 17.872 40.184C18.664 39.872 19.54 39.356 20.5 38.636C21.484 37.916 22.312 37.1 22.984 36.188C23.68 35.276 24.028 34.388 24.028 33.524C24.028 32.828 23.788 32.192 23.308 31.616C22.828 31.064 22.144 30.536 21.256 30.032C20.392 29.528 19.24 28.94 17.8 28.268C16.024 27.428 14.596 26.696 13.516 26.072C12.46 25.424 11.548 24.668 10.78 23.804C10.012 22.916 9.628 21.92 9.628 20.816C9.628 20.312 9.688 19.868 9.808 19.484C10.384 17.324 11.8 15.776 14.056 14.84C16.336 13.88 18.796 13.4 21.436 13.4C22.588 13.4 23.596 13.472 24.46 13.616C25.324 13.76 26.044 14.072 26.62 14.552C27.268 15.08 27.592 15.824 27.592 16.784C27.592 17.36 27.496 17.936 27.304 18.512C27.136 19.064 26.872 19.82 26.512 20.78C26.248 21.428 26.092 21.824 26.044 21.968C25.9 22.376 25.504 22.58 24.856 22.58C24.208 22.58 23.572 22.4 22.948 22.04C22.324 21.68 22.012 21.272 22.012 20.816C22.012 20.696 22.024 20.6 22.048 20.528L22.588 18.98C22.828 18.308 22.996 17.804 23.092 17.468L23.344 15.956C20.32 15.908 17.908 16.52 16.108 17.792C15.388 18.272 14.824 18.836 14.416 19.484C14.032 20.108 13.84 20.744 13.84 21.392C13.84 22.52 14.404 23.492 15.532 24.308C16.348 24.884 17.248 25.424 18.232 25.928C19.24 26.432 19.852 26.744 20.068 26.864C21.46 27.56 22.576 28.148 23.416 28.628C24.28 29.108 25.084 29.684 25.828 30.356ZM49.6828 28.052C49.6828 26.924 49.2748 25.892 48.4588 24.956C47.6428 24.02 46.6108 23.096 45.3628 22.184C43.0588 20.552 40.4308 19.088 37.4788 17.792C37.1428 19.832 36.6628 22.892 36.0388 26.972C35.8708 28.052 35.5828 29.852 35.1748 32.372C34.7908 34.892 34.4188 37.136 34.0588 39.104C36.2188 38.24 38.0908 37.448 39.6748 36.728C41.2588 35.984 42.7708 35.18 44.2108 34.316C45.7948 33.404 47.1028 32.456 48.1348 31.472C49.1668 30.488 49.6828 29.348 49.6828 28.052ZM49.6828 21.104C52.1788 23.072 53.4268 25.124 53.4268 27.26C53.4268 27.572 53.3908 27.908 53.3188 28.268C53.0308 29.732 52.2988 31.04 51.1228 32.192C49.9468 33.344 48.4708 34.484 46.6948 35.612C42.0148 38.564 36.2668 41.12 29.4508 43.28C29.1388 43.376 28.8268 43.424 28.5148 43.424C28.1548 43.424 27.8788 43.352 27.6868 43.208C27.4708 43.04 27.3628 42.836 27.3628 42.596C27.3628 42.356 27.4828 42.116 27.7228 41.876C27.9388 41.612 28.2628 41.396 28.6948 41.228L30.2428 40.616C30.0748 40.448 30.0268 40.256 30.0988 40.04L31.8268 29.564C32.4988 25.196 33.2188 20.84 33.9868 16.496L34.0228 16.316C33.4948 16.076 32.6788 15.74 31.5748 15.308C31.2388 15.164 31.0708 14.972 31.0708 14.732C31.0708 14.372 31.3948 14 32.0428 13.616C32.7148 13.208 33.3388 13.004 33.9148 13.004C34.1548 13.004 34.3228 13.028 34.4188 13.076C37.9468 14.516 40.8748 15.812 43.2028 16.964C45.5548 18.116 47.7148 19.496 49.6828 21.104Z" fill="white"/>
</svg>
